<?xml version="1.0" encoding="UTF-8" standalone="no"?>
<!DOCTYPE svg PUBLIC "-//W3C//DTD SVG 1.1//EN"
 "http://www.w3.org/Graphics/SVG/1.1/DTD/svg11.dtd">
<!-- Generated by graphviz version 9.0.0 (20230911.1827)
 -->
<!-- Title: Tree Pages: 1 -->
<svg width="688pt" height="286pt"
 viewBox="0.00 0.00 688.38 285.50" xmlns="http://www.w3.org/2000/svg" xmlns:xlink="http://www.w3.org/1999/xlink">
<g id="graph0" class="graph" transform="scale(1 1) rotate(0) translate(4 281.5)">
<title>Tree</title>
<polygon fill="white" stroke="none" points="-4,4 -4,-281.5 684.38,-281.5 684.38,4 -4,4"/>
<!-- 0 -->
<g id="node1" class="node">
<title>0</title>
<path fill="#f2c19d" stroke="black" d="M402.38,-277.5C402.38,-277.5 267.88,-277.5 267.88,-277.5 261.88,-277.5 255.88,-271.5 255.88,-265.5 255.88,-265.5 255.88,-215.5 255.88,-215.5 255.88,-209.5 261.88,-203.5 267.88,-203.5 267.88,-203.5 402.38,-203.5 402.38,-203.5 408.38,-203.5 414.38,-209.5 414.38,-215.5 414.38,-215.5 414.38,-265.5 414.38,-265.5 414.38,-271.5 408.38,-277.5 402.38,-277.5"/>
<text text-anchor="start" x="301.75" y="-260.2" font-family="Helvetica,sans-Serif" font-size="14.00">x2 ≤ 0.429</text>
<text text-anchor="start" x="263.88" y="-243.7" font-family="Helvetica,sans-Serif" font-size="14.00">squared_error = 2.225</text>
<text text-anchor="start" x="287.88" y="-227.2" font-family="Helvetica,sans-Serif" font-size="14.00">samples = 100</text>
<text text-anchor="start" x="292.38" y="-210.7" font-family="Helvetica,sans-Serif" font-size="14.00">value = 3.469</text>
</g>
<!-- 1 -->
<g id="node2" class="node">
<title>1</title>
<path fill="#fbe9dd" stroke="black" d="M314.38,-167.5C314.38,-167.5 179.88,-167.5 179.88,-167.5 173.88,-167.5 167.88,-161.5 167.88,-155.5 167.88,-155.5 167.88,-105.5 167.88,-105.5 167.88,-99.5 173.88,-93.5 179.88,-93.5 179.88,-93.5 314.38,-93.5 314.38,-93.5 320.38,-93.5 326.38,-99.5 326.38,-105.5 326.38,-105.5 326.38,-155.5 326.38,-155.5 326.38,-161.5 320.38,-167.5 314.38,-167.5"/>
<text text-anchor="start" x="213.75" y="-150.2" font-family="Helvetica,sans-Serif" font-size="14.00">x1 ≤ 0.393</text>
<text text-anchor="start" x="175.88" y="-133.7" font-family="Helvetica,sans-Serif" font-size="14.00">squared_error = 1.239</text>
<text text-anchor="start" x="204" y="-117.2" font-family="Helvetica,sans-Serif" font-size="14.00">samples = 42</text>
<text text-anchor="start" x="208.5" y="-100.7" font-family="Helvetica,sans-Serif" font-size="14.00">value = 2.37</text>
</g>
<!-- 0&#45;&gt;1 -->
<g id="edge1" class="edge">
<title>0&#45;&gt;1</title>
<path fill="none" stroke="black" d="M305.58,-203.24C298.61,-194.69 291.1,-185.47 283.86,-176.59"/>
<polygon fill="black" stroke="black" points="286.73,-174.57 277.7,-169.02 281.3,-178.99 286.73,-174.57"/>
<text text-anchor="middle" x="274.21" y="-187.67" font-family="Helvetica,sans-Serif" font-size="14.00">True</text>
</g>
<!-- 4 -->
<g id="node5" class="node">
<title>4</title>
<path fill="#eca470" stroke="black" d="M487.25,-167.5C487.25,-167.5 361,-167.5 361,-167.5 355,-167.5 349,-161.5 349,-155.5 349,-155.5 349,-105.5 349,-105.5 349,-99.5 355,-93.5 361,-93.5 361,-93.5 487.25,-93.5 487.25,-93.5 493.25,-93.5 499.25,-99.5 499.25,-105.5 499.25,-105.5 499.25,-155.5 499.25,-155.5 499.25,-161.5 493.25,-167.5 487.25,-167.5"/>
<text text-anchor="start" x="390.75" y="-150.2" font-family="Helvetica,sans-Serif" font-size="14.00">x1 ≤ 0.656</text>
<text text-anchor="start" x="357" y="-133.7" font-family="Helvetica,sans-Serif" font-size="14.00">squared_error = 1.43</text>
<text text-anchor="start" x="381" y="-117.2" font-family="Helvetica,sans-Serif" font-size="14.00">samples = 58</text>
<text text-anchor="start" x="381.38" y="-100.7" font-family="Helvetica,sans-Serif" font-size="14.00">value = 4.265</text>
</g>
<!-- 0&#45;&gt;4 -->
<g id="edge4" class="edge">
<title>0&#45;&gt;4</title>
<path fill="none" stroke="black" d="M365.01,-203.24C372.05,-194.69 379.65,-185.47 386.97,-176.59"/>
<polygon fill="black" stroke="black" points="389.55,-178.96 393.21,-169.02 384.15,-174.51 389.55,-178.96"/>
<text text-anchor="middle" x="396.57" y="-187.69" font-family="Helvetica,sans-Serif" font-size="14.00">False</text>
</g>
<!-- 2 -->
<g id="node3" class="node">
<title>2</title>
<path fill="#ffffff" stroke="black" d="M138.25,-57.5C138.25,-57.5 12,-57.5 12,-57.5 6,-57.5 0,-51.5 0,-45.5 0,-45.5 0,-12 0,-12 0,-6 6,0 12,0 12,0 138.25,0 138.25,0 144.25,0 150.25,-6 150.25,-12 150.25,-12 150.25,-45.5 150.25,-45.5 150.25,-51.5 144.25,-57.5 138.25,-57.5"/>
<text text-anchor="start" x="8" y="-40.2" font-family="Helvetica,sans-Serif" font-size="14.00">squared_error = 0.58</text>
<text text-anchor="start" x="32" y="-23.7" font-family="Helvetica,sans-Serif" font-size="14.00">samples = 20</text>
<text text-anchor="start" x="32.38" y="-7.2" font-family="Helvetica,sans-Serif" font-size="14.00">value = 1.778</text>
</g>
<!-- 1&#45;&gt;2 -->
<g id="edge2" class="edge">
<title>1&#45;&gt;2</title>
<path fill="none" stroke="black" d="M184.54,-93.21C167.76,-83.47 149.69,-72.99 133.17,-63.41"/>
<polygon fill="black" stroke="black" points="135.35,-60.63 124.95,-58.64 131.84,-66.69 135.35,-60.63"/>
</g>
<!-- 3 -->
<g id="node4" class="node">
<title>3</title>
<path fill="#f6d6be" stroke="black" d="M314.38,-57.5C314.38,-57.5 179.88,-57.5 179.88,-57.5 173.88,-57.5 167.88,-51.5 167.88,-45.5 167.88,-45.5 167.88,-12 167.88,-12 167.88,-6 173.88,0 179.88,0 179.88,0 314.38,0 314.38,0 320.38,0 326.38,-6 326.38,-12 326.38,-12 326.38,-45.5 326.38,-45.5 326.38,-51.5 320.38,-57.5 314.38,-57.5"/>
<text text-anchor="start" x="175.88" y="-40.2" font-family="Helvetica,sans-Serif" font-size="14.00">squared_error = 1.229</text>
<text text-anchor="start" x="204" y="-23.7" font-family="Helvetica,sans-Serif" font-size="14.00">samples = 22</text>
<text text-anchor="start" x="204.38" y="-7.2" font-family="Helvetica,sans-Serif" font-size="14.00">value = 2.908</text>
</g>
<!-- 1&#45;&gt;3 -->
<g id="edge3" class="edge">
<title>1&#45;&gt;3</title>
<path fill="none" stroke="black" d="M247.12,-93.21C247.12,-85.35 247.12,-77 247.12,-69.03"/>
<polygon fill="black" stroke="black" points="250.63,-69.24 247.13,-59.24 243.63,-69.24 250.63,-69.24"/>
</g>
<!-- 5 -->
<g id="node6" class="node">
<title>5</title>
<path fill="#f0b78f" stroke="black" d="M491.38,-57.5C491.38,-57.5 356.88,-57.5 356.88,-57.5 350.88,-57.5 344.88,-51.5 344.88,-45.5 344.88,-45.5 344.88,-12 344.88,-12 344.88,-6 350.88,0 356.88,0 356.88,0 491.38,0 491.38,0 497.38,0 503.38,-6 503.38,-12 503.38,-12 503.38,-45.5 503.38,-45.5 503.38,-51.5 497.38,-57.5 491.38,-57.5"/>
<text text-anchor="start" x="352.88" y="-40.2" font-family="Helvetica,sans-Serif" font-size="14.00">squared_error = 0.932</text>
<text text-anchor="start" x="381" y="-23.7" font-family="Helvetica,sans-Serif" font-size="14.00">samples = 37</text>
<text text-anchor="start" x="381.38" y="-7.2" font-family="Helvetica,sans-Serif" font-size="14.00">value = 3.728</text>
</g>
<!-- 4&#45;&gt;5 -->
<g id="edge5" class="edge">
<title>4&#45;&gt;5</title>
<path fill="none" stroke="black" d="M424.12,-93.21C424.12,-85.35 424.12,-77 424.12,-69.03"/>
<polygon fill="black" stroke="black" points="427.63,-69.24 424.13,-59.24 420.63,-69.24 427.63,-69.24"/>
</g>
<!-- 6 -->
<g id="node7" class="node">
<title>6</title>
<path fill="#e58139" stroke="black" d="M668.38,-57.5C668.38,-57.5 533.88,-57.5 533.88,-57.5 527.88,-57.5 521.88,-51.5 521.88,-45.5 521.88,-45.5 521.88,-12 521.88,-12 521.88,-6 527.88,0 533.88,0 533.88,0 668.38,0 668.38,0 674.38,0 680.38,-6 680.38,-12 680.38,-12 680.38,-45.5 680.38,-45.5 680.38,-51.5 674.38,-57.5 668.38,-57.5"/>
<text text-anchor="start" x="529.88" y="-40.2" font-family="Helvetica,sans-Serif" font-size="14.00">squared_error = 0.901</text>
<text text-anchor="start" x="558" y="-23.7" font-family="Helvetica,sans-Serif" font-size="14.00">samples = 21</text>
<text text-anchor="start" x="558.38" y="-7.2" font-family="Helvetica,sans-Serif" font-size="14.00">value = 5.212</text>
</g>
<!-- 4&#45;&gt;6 -->
<g id="edge6" class="edge">
<title>4&#45;&gt;6</title>
<path fill="none" stroke="black" d="M488.78,-93.06C505.95,-83.39 524.41,-72.98 541.31,-63.46"/>
<polygon fill="black" stroke="black" points="542.75,-66.67 549.74,-58.71 539.31,-60.57 542.75,-66.67"/>
</g>
</g>
</svg>
